mtllib materials.mtl
v 0.04072931 -0.2244791 0.3012502
v -0.02927077 -0.2244791 0.3012503
v -0.0292708 0.2655207 0.3012503
v 0.04072931 0.2655209 0.3012503
v 0.0407294 -0.2244791 -0.3887502
v 0.0407294 0.2655209 -0.3887503
v -0.02927071 0.2655207 -0.3887504
v -0.02927068 -0.2244791 -0.3887503
v 0.03072938 0.2189709 0.2357002
v 0.03072941 -0.177929 0.2357002
v 0.03072947 0.2189709 -0.3232003
v 0.03072941 -0.177929 -0.3232002
v -0.009270579 0.2189709 0.2357002
v -0.009270549 -0.177929 0.2357002
v -0.009270489 0.2189709 -0.3232003
v -0.009270549 -0.177929 -0.3232002
v -0.009270877 -0.2044792 0.2212501
v -0.009270877 -0.1744792 0.2212501
v 0.0107291 -0.1744792 0.2212501
v 0.0107291 -0.2044792 0.2212501
v -0.009270877 -0.2044792 -0.01874995
v 0.0107291 -0.2044792 -0.01874995
v 0.0107291 -0.1544793 -0.008749962
v -0.009270877 -0.1544793 -0.008749962
v -0.009270877 -0.2044792 0.1012501
v -0.009270877 -0.00447917 0.1012501
v 0.0107291 -0.00447917 0.1012501
v 0.0107291 -0.2044792 0.1012501
v -0.01427081 -0.2065623 0.02124989
v -0.01427081 -0.1753125 0.01125002
v 0.01989576 -0.1753125 0.01125002
v 0.01989576 -0.2065623 0.02125001
v -0.01427078 -0.2165624 -0.3587499
v 0.01989579 -0.2165624 -0.35875
v 0.01989579 -0.1911458 -0.3516666
v -0.01427081 -0.1911458 -0.3516666
v -0.01427081 -0.2165624 -0.16375
v -0.01427084 0.1334375 -0.1637499
v 0.01989576 0.1334375 -0.1637499
v 0.01989582 -0.2165624 -0.16375
v 0.0007291436 0.1655208 0.1112499
v 0.0007291436 0.1601619 0.1312499
v -0.01927084 0.1601619 0.1312499
v -0.01927084 0.1655208 0.1112499
v 0.0007291436 0.1455208 0.145891
v -0.01927084 0.1455208 0.145891
v 0.0007291436 0.1255208 0.1512499
v -0.01927084 0.1255208 0.1512499
v 0.0007291436 0.1055208 0.145891
v -0.01927084 0.1055208 0.145891
v 0.0007291436 0.0908798 0.1312499
v -0.01927084 0.0908798 0.1312499
v 0.0007291436 0.08552086 0.1112499
v -0.01927084 0.08552086 0.1112499
v 0.0007291436 0.0908798 0.09124994
v -0.01927084 0.0908798 0.09124994
v 0.0007291436 0.1055208 0.0766089
v -0.01927084 0.1055208 0.0766089
v 0.0007291436 0.1255208 0.07124996
v -0.01927084 0.1255208 0.07124996
v 0.0007291436 0.1455208 0.0766089
v -0.01927084 0.1455208 0.0766089
v 0.0007291436 0.1601619 0.09124994
v -0.01927084 0.1601619 0.09124994
vn -1.192093E-07 0 1
vn 1.192093E-07 0 -1
vn 1.748456E-07 -1 0
vn -1.748456E-07 1 0
vn 0.9885629 8.60876E-08 -0.1508095
vn -1 -1.748456E-07 -1.192093E-07
vn 0.9776951 -0.2100297 1.273729E-07
vn 0.9885629 -1.622842E-08 0.1508098
vn 0.9776951 0.2100297 7.725991E-08
vn 1.192093E-07 7.407987E-09 -1
vn -6.408452E-10 -1 -2.588572E-14
vn -1.609328E-06 3.023291E-07 1
vn -1.683515E-07 1 7.741549E-16
vn 1 1.748456E-07 1.192093E-07
vn 1.44045E-07 -2.483531E-07 1
vn -1.461245E-08 0.1961162 -0.9805807
vn -1 0 0
vn 1 0 0
vn 0 -1 0
vn 2.005084E-08 0.5766829 0.8169681
vn 1 0 0
vn 8.411428E-08 0.5913633 -0.8064052
vn -1 0 0
vn 0 -1 0
vn -5.048095E-07 0.3047746 0.9524245
vn -1.862281E-06 0.2684596 -0.9632909
vn -1 -5.960464E-08 -1.490116E-07
vn 1 5.960464E-08 1.490116E-07
vn -1.456888E-07 -0.9985422 0.05397576
vn -1.085731E-07 0.4931012 0.869972
vn 1 5.960464E-08 1.490116E-07
vn 1.309946E-07 0.5010361 -0.8654262
vn -1 -5.960464E-08 -1.490116E-07
vn 2.980232E-08 -1 -1.788139E-07
vn -1 1.149663E-07 9.343024E-09
vn 0.9999999 9.319687E-07 3.073662E-07
vn -2.967463E-07 0.9659264 0.2588169
vn 1.905483E-07 0.7071068 0.7071067
vn 1.858738E-06 0.258817 0.9659263
vn -1.946392E-07 -0.258817 0.9659263
vn 3.606629E-07 -0.7071067 0.7071068
vn 1.748161E-06 -0.9659263 0.2588172
vn -5.60868E-07 -0.9659263 -0.2588171
vn 1.55199E-07 -0.7071068 -0.7071067
vn 1.910686E-06 -0.258817 -0.9659263
vn -3.584678E-07 0.258817 -0.9659263
vn 2.45821E-07 0.7071068 -0.7071068
vn 1.793414E-06 0.9659263 -0.2588172
vn 1 0 0
vn -1 0 0
usemtl mat19
f 4//1 3//1 2//1 1//1
f 8//2 7//2 6//2 5//2
f 2//3 8//3 5//3 1//3
f 6//4 7//4 3//4 4//4
f 10//5 9//5 4//5 1//5
f 3//6 7//6 8//6 2//6
f 9//7 11//7 6//7 4//7
f 11//8 12//8 5//8 6//8
f 12//9 10//9 1//9 5//9
f 14//10 13//10 9//10 10//10
f 13//11 15//11 11//11 9//11
f 15//12 16//12 12//12 11//12
f 16//13 14//13 10//13 12//13
usemtl mat3
f 16//14 15//14 13//14 14//14
usemtl mat9
f 20//15 19//15 18//15 17//15
f 24//16 23//16 22//16 21//16
f 18//17 26//17 25//17 17//17
f 28//18 27//18 19//18 20//18
f 25//19 28//19 20//19 17//19
f 19//20 27//20 26//20 18//20
f 28//21 22//21 23//21 27//21
f 27//22 23//22 24//22 26//22
f 26//23 24//23 21//23 25//23
f 25//24 21//24 22//24 28//24
f 32//25 31//25 30//25 29//25
f 36//26 35//26 34//26 33//26
f 30//27 38//27 37//27
f 40//28 39//28 31//28
f 37//29 40//29 32//29 29//29
f 31//30 39//30 38//30 30//30
f 40//31 34//31 35//31 39//31
f 39//32 35//32 36//32 38//32
f 38//33 36//33 33//33 37//33
f 37//34 33//34 34//34 40//34
f 37//35 29//35 30//35
f 31//36 32//36 40//36
usemtl mat12
f 44//37 43//37 42//37 41//37
f 43//38 46//38 45//38 42//38
f 46//39 48//39 47//39 45//39
f 48//40 50//40 49//40 47//40
f 50//41 52//41 51//41 49//41
f 52//42 54//42 53//42 51//42
f 54//43 56//43 55//43 53//43
f 56//44 58//44 57//44 55//44
f 58//45 60//45 59//45 57//45
f 60//46 62//46 61//46 59//46
f 62//47 64//47 63//47 61//47
f 64//48 44//48 41//48 63//48
f 41//49 42//49 45//49 47//49 49//49 51//49 53//49 55//49 57//49 59//49 61//49 63//49
f 64//50 62//50 60//50 58//50 56//50 54//50 52//50 50//50 48//50 46//50 43//50 44//50
